<svg width="9" height="6" viewBox="0 0 9 6" fill="none" xmlns="http://www.w3.org/2000/svg">
<path d="M8.84868 0.968196C8.90449 1.024 8.93239 1.08817 8.93239 1.16072C8.93239 1.23326 8.90449 1.29744 8.84868 1.35324L4.94801 5.25391C4.89221 5.30971 4.82804 5.33762 4.75549 5.33762C4.68295 5.33762 4.61877 5.30971 4.56297 5.25391L0.6623 1.35324C0.606496 1.29744 0.578594 1.23326 0.578594 1.16072C0.578594 1.08817 0.606496 1.024 0.6623 0.968196L1.08083 0.54967C1.13663 0.493866 1.2008 0.465964 1.27335 0.465964C1.34589 0.465964 1.41007 0.493866 1.46587 0.54967L4.75549 3.83929L8.04511 0.54967C8.10092 0.493866 8.16509 0.465964 8.23763 0.465964C8.31018 0.465964 8.37435 0.493866 8.43016 0.54967L8.84868 0.968196Z" fill="#0F110F"/>
</svg>
